<svg width="201" height="74" viewBox="0 0 201 74" fill="none" xmlns="http://www.w3.org/2000/svg">
<path d="M5.76 59V15.48H21.76C24.6613 15.48 27.136 16.504 29.184 18.552C31.232 20.6 32.256 23.0747 32.256 25.976C32.256 27.9813 31.744 29.816 30.72 31.48C29.696 33.1013 28.3307 34.36 26.624 35.256C28.928 36.152 30.7627 37.5387 32.128 39.416C33.4933 41.2933 34.176 43.4907 34.176 46.008C34.176 49.6347 32.9173 52.7067 30.4 55.224C27.8827 57.7413 24.8107 59 21.184 59H5.76ZM21.056 37.624H10.88V54.392H21.056C23.3173 54.392 25.2587 53.56 26.88 51.896C28.5013 50.232 29.312 48.2693 29.312 46.008C29.312 43.704 28.5013 41.7413 26.88 40.12C25.2587 38.456 23.3173 37.624 21.056 37.624ZM20.8 20.088H10.88V33.016H20.8C22.6347 33.016 24.192 32.3973 25.472 31.16C26.752 29.9227 27.392 28.3867 27.392 26.552C27.392 24.7173 26.752 23.1813 25.472 21.944C24.192 20.7067 22.6347 20.088 20.8 20.088ZM40.925 27H45.789V46.456C45.789 52.5147 47.9437 55.544 52.253 55.544C54.7277 55.544 56.9677 54.2853 58.973 51.768C61.021 49.208 62.109 45.688 62.237 41.208V27H67.101V52.6L67.741 59L63.517 59.32L62.237 52.728C60.957 55.032 59.3357 56.8027 57.373 58.04C55.4103 59.2773 53.4263 59.896 51.421 59.896C44.4237 59.896 40.925 55.416 40.925 46.456V27ZM74.4185 31.16V27H79.2825L80.8185 17.4H84.1465V27H91.6345V31.16H84.1465V52.024C84.1465 54.3707 85.1065 55.544 87.0265 55.544C88.4772 55.544 90.0558 54.9253 91.7625 53.688L93.5545 56.952C91.0798 58.9147 88.6692 59.896 86.3225 59.896C83.9758 59.896 82.2052 59.3413 81.0105 58.232C79.8585 57.08 79.2825 55.0107 79.2825 52.024V31.16H74.4185ZM109.174 59.896C105.505 59.896 102.497 58.5093 100.15 55.736C97.8033 52.9627 96.63 48.9733 96.63 43.768C96.63 38.52 98.102 34.2747 101.046 31.032C104.033 27.7467 107.723 26.104 112.118 26.104C116.555 26.104 120.545 27.3413 124.086 29.816V52.6L124.726 59L120.502 59.32L119.414 53.56C117.025 57.784 113.611 59.896 109.174 59.896ZM101.494 43.64C101.494 47.48 102.305 50.424 103.926 52.472C105.547 54.52 107.617 55.544 110.134 55.544C112.694 55.544 114.849 54.2853 116.598 51.768C118.347 49.208 119.222 45.6027 119.222 40.952V32.056C117.089 30.9893 114.806 30.456 112.374 30.456C109.217 30.456 106.614 31.6933 104.566 34.168C102.518 36.6 101.494 39.7573 101.494 43.64Z" fill="black"/>
<rect x="133" y="3" width="68" height="68" rx="10" fill="#71AA67"/>
<path d="M158.204 49.576C155.852 49.576 153.872 48.988 152.264 47.812C150.68 46.636 149.54 45.112 148.844 43.24C148.148 41.368 147.8 39.208 147.8 36.76C147.8 34.312 148.148 32.152 148.844 30.28C149.54 28.408 150.68 26.884 152.264 25.708C153.872 24.532 155.972 23.944 158.564 23.944C161.18 23.944 163.496 24.496 165.512 25.6L164.504 28.048C162.584 27.064 160.412 26.572 157.988 26.572C155.588 26.572 153.764 27.52 152.516 29.416C151.292 31.288 150.68 33.748 150.68 36.796C150.68 39.82 151.292 42.268 152.516 44.14C153.74 46.012 155.54 46.948 157.916 46.948C160.316 46.948 162.272 46.528 163.784 45.688V38.056H158.276V35.464H166.52V47.092C163.88 48.748 161.108 49.576 158.204 49.576ZM172.983 46.876C171.663 45.1 171.003 42.808 171.003 40C171.003 37.192 171.663 34.912 172.983 33.16C174.303 31.384 176.271 30.496 178.887 30.496C181.527 30.496 183.519 31.384 184.863 33.16C186.207 34.912 186.879 37.192 186.879 40C186.879 42.808 186.207 45.1 184.863 46.876C183.519 48.628 181.527 49.504 178.887 49.504C176.271 49.504 174.303 48.628 172.983 46.876ZM175.035 34.924C174.171 36.22 173.739 37.912 173.739 40C173.739 42.088 174.171 43.792 175.035 45.112C175.899 46.408 177.195 47.056 178.923 47.056C180.651 47.056 181.947 46.408 182.811 45.112C183.699 43.792 184.143 42.088 184.143 40C184.143 37.912 183.699 36.22 182.811 34.924C181.947 33.604 180.651 32.944 178.923 32.944C177.195 32.944 175.899 33.604 175.035 34.924Z" fill="white"/>
<path d="M171.26 19V9.48H174.76C175.395 9.48 175.936 9.704 176.384 10.152C176.832 10.6 177.056 11.1413 177.056 11.776C177.056 12.2147 176.944 12.616 176.72 12.98C176.496 13.3347 176.197 13.61 175.824 13.806C176.328 14.002 176.729 14.3053 177.028 14.716C177.327 15.1267 177.476 15.6073 177.476 16.158C177.476 16.9513 177.201 17.6233 176.65 18.174C176.099 18.7247 175.427 19 174.634 19H171.26ZM174.606 14.324H172.38V17.992H174.606C175.101 17.992 175.525 17.81 175.88 17.446C176.235 17.082 176.412 16.6527 176.412 16.158C176.412 15.654 176.235 15.2247 175.88 14.87C175.525 14.506 175.101 14.324 174.606 14.324ZM174.55 10.488H172.38V13.316H174.55C174.951 13.316 175.292 13.1807 175.572 12.91C175.852 12.6393 175.992 12.3033 175.992 11.902C175.992 11.5007 175.852 11.1647 175.572 10.894C175.292 10.6233 174.951 10.488 174.55 10.488ZM181.43 19.196C180.59 19.196 179.895 18.902 179.344 18.314C178.803 17.726 178.532 16.8627 178.532 15.724C178.532 14.5853 178.854 13.6473 179.498 12.91C180.142 12.1727 180.978 11.804 182.004 11.804C182.658 11.804 183.185 12.0047 183.586 12.406C183.988 12.798 184.188 13.2927 184.188 13.89C184.188 14.478 183.88 15.0193 183.264 15.514C182.658 16.0087 181.771 16.256 180.604 16.256C180.296 16.256 179.97 16.242 179.624 16.214C179.69 16.8767 179.89 17.3807 180.226 17.726C180.572 18.0713 180.987 18.244 181.472 18.244C182.284 18.244 182.961 17.992 183.502 17.488L184.006 18.174C183.297 18.8553 182.438 19.196 181.43 19.196ZM181.962 12.756C181.318 12.756 180.782 12.9847 180.352 13.442C179.932 13.8993 179.685 14.506 179.61 15.262C179.918 15.3087 180.259 15.332 180.632 15.332C181.435 15.332 182.051 15.1827 182.48 14.884C182.91 14.5853 183.124 14.24 183.124 13.848C183.124 13.5587 183.017 13.3067 182.802 13.092C182.597 12.868 182.317 12.756 181.962 12.756ZM185.09 12.91V12H186.154L186.49 9.9H187.218V12H188.856V12.91H187.218V17.474C187.218 17.9873 187.428 18.244 187.848 18.244C188.165 18.244 188.51 18.1087 188.884 17.838L189.276 18.552C188.734 18.9813 188.207 19.196 187.694 19.196C187.18 19.196 186.793 19.0747 186.532 18.832C186.28 18.58 186.154 18.1273 186.154 17.474V12.91H185.09ZM192.692 19.196C191.89 19.196 191.232 18.8927 190.718 18.286C190.205 17.6793 189.948 16.8067 189.948 15.668C189.948 14.52 190.27 13.5913 190.914 12.882C191.568 12.1633 192.375 11.804 193.336 11.804C194.307 11.804 195.18 12.0747 195.954 12.616V17.6L196.094 19L195.17 19.07L194.932 17.81C194.41 18.734 193.663 19.196 192.692 19.196ZM191.012 15.64C191.012 16.48 191.19 17.124 191.544 17.572C191.899 18.02 192.352 18.244 192.902 18.244C193.462 18.244 193.934 17.9687 194.316 17.418C194.699 16.858 194.89 16.0693 194.89 15.052V13.106C194.424 12.8727 193.924 12.756 193.392 12.756C192.702 12.756 192.132 13.0267 191.684 13.568C191.236 14.1 191.012 14.7907 191.012 15.64Z" fill="#B0D3AA"/>
</svg>
